<?xml version="1.0" encoding="UTF-8"?>
<svg version="1.1" xmlns="http://www.w3.org/2000/svg" width="32" height="32">
<path d="M0 0 C10.56 0 21.12 0 32 0 C32 10.56 32 21.12 32 32 C21.44 32 10.88 32 0 32 C0 21.44 0 10.88 0 0 Z " fill="#853BA1" transform="translate(0,0)"/>
<path d="M0 0 C1.0725 -0.01675781 2.145 -0.03351562 3.25 -0.05078125 C4.1575 0.06910156 5.065 0.18898438 6 0.3125 C8.24234009 3.67601013 8.27098215 4.93560056 8.25 8.875 C8.25515625 9.84566406 8.2603125 10.81632812 8.265625 11.81640625 C8 14.3125 8 14.3125 6 16.3125 C3.50390625 16.578125 3.50390625 16.578125 0.5625 16.5625 C-0.88962891 16.57023437 -0.88962891 16.57023437 -2.37109375 16.578125 C-5 16.3125 -5 16.3125 -8 14.3125 C-8.36328125 11.5625 -8.36328125 11.5625 -8.3125 8.3125 C-8.30863281 7.24 -8.30476562 6.1675 -8.30078125 5.0625 C-7.71055419 -0.33386173 -4.70172303 0.01695333 0 0 Z " fill="#C315BB" transform="translate(16,7.6875)"/>
<path d="M0 0 C0.49371094 0.3609375 0.98742188 0.721875 1.49609375 1.09375 C2.13675781 1.5578125 2.77742188 2.021875 3.4375 2.5 C4.07558594 2.9640625 4.71367187 3.428125 5.37109375 3.90625 C6.81136032 5.09290897 6.81136032 5.09290897 8 5 C8 10.28 8 15.56 8 21 C5.628125 21.0825 3.25625 21.165 0.8125 21.25 C0.07491455 21.28641602 -0.6626709 21.32283203 -1.42260742 21.36035156 C-4.94001029 21.41925203 -6.90101758 21.05973305 -9.92578125 19.234375 C-11.96794621 17.03452875 -12.68523647 15.93779294 -13 13 C-12.21753906 12.93941406 -11.43507813 12.87882812 -10.62890625 12.81640625 C-9.61699219 12.73261719 -8.60507813 12.64882813 -7.5625 12.5625 C-6.55316406 12.48128906 -5.54382813 12.40007813 -4.50390625 12.31640625 C-2.06359221 12.26788532 -2.06359221 12.26788532 -1 11 C-0.76636119 9.15108054 -0.58696365 7.29511969 -0.4375 5.4375 C-0.35371094 4.42558594 -0.26992188 3.41367188 -0.18359375 2.37109375 C-0.12300781 1.58863281 -0.06242187 0.80617188 0 0 Z " fill="#4E267F" transform="translate(24,11)"/>
<path d="M0 0 C1.09054688 0.02320313 2.18109375 0.04640625 3.3046875 0.0703125 C4.40039062 0.08835937 5.49609375 0.10640625 6.625 0.125 C7.46804687 0.14820313 8.31109375 0.17140625 9.1796875 0.1953125 C8.5609375 0.4840625 7.9421875 0.7728125 7.3046875 1.0703125 C5.04642985 2.13251292 5.04642985 2.13251292 3.1796875 4.1953125 C0.5546875 4.3203125 0.5546875 4.3203125 -1.8203125 4.1953125 C0.1596875 4.8553125 2.1396875 5.5153125 4.1796875 6.1953125 C4.1796875 6.8553125 4.1796875 7.5153125 4.1796875 8.1953125 C4.8396875 8.1953125 5.4996875 8.1953125 6.1796875 8.1953125 C6.1796875 7.5353125 6.1796875 6.8753125 6.1796875 6.1953125 C6.8396875 6.5253125 7.4996875 6.8553125 8.1796875 7.1953125 C7.5196875 8.5153125 6.8596875 9.8353125 6.1796875 11.1953125 C5.0453125 11.1746875 3.9109375 11.1540625 2.7421875 11.1328125 C-0.63606924 10.77953773 -0.63606924 10.77953773 -1.8203125 12.1953125 C-0.5003125 12.5253125 0.8196875 12.8553125 2.1796875 13.1953125 C1.5196875 13.8553125 0.8596875 14.5153125 0.1796875 15.1953125 C-2.4453125 14.8203125 -2.4453125 14.8203125 -4.8203125 14.1953125 C-4.87420337 12.23727743 -4.91305467 10.27882341 -4.9453125 8.3203125 C-4.96851563 7.22976562 -4.99171875 6.13921875 -5.015625 5.015625 C-4.74462643 1.10240559 -3.91321941 0.27099857 0 0 Z " fill="#F83597" transform="translate(12.8203125,7.8046875)"/>
<path d="M0 0 C1.2065625 0.0309375 1.2065625 0.0309375 2.4375 0.0625 C2.1075 2.7025 1.7775 5.3425 1.4375 8.0625 C0.4475 7.0725 -0.5425 6.0825 -1.5625 5.0625 C-1.5625 5.7225 -1.5625 6.3825 -1.5625 7.0625 C-2.2225 7.0625 -2.8825 7.0625 -3.5625 7.0625 C-3.8925 6.4025 -4.2225 5.7425 -4.5625 5.0625 C-6.2125 5.0625 -7.8625 5.0625 -9.5625 5.0625 C-9.5625 4.4025 -9.5625 3.7425 -9.5625 3.0625 C-8.1084375 2.5984375 -8.1084375 2.5984375 -6.625 2.125 C-0.53780864 0.01311728 -0.53780864 0.01311728 0 0 Z " fill="#E730AC" transform="translate(20.5625,8.9375)"/>
<path d="M0 0 C1.67542976 0.28604898 3.34385343 0.61781233 5 1 C5 1.66 5 2.32 5 3 C5.66 3 6.32 3 7 3 C7 2.34 7 1.68 7 1 C7.66 1.33 8.32 1.66 9 2 C8.34 3.32 7.68 4.64 7 6 C4.69 6 2.38 6 0 6 C-0.38218767 4.34385343 -0.71395102 2.67542976 -1 1 C-0.67 0.67 -0.34 0.34 0 0 Z " fill="#F0A4DA" transform="translate(12,13)"/>
<path d="M0 0 C0.33 0 0.66 0 1 0 C1.12375 0.94875 1.2475 1.8975 1.375 2.875 C1.71687177 6.08667191 1.71687177 6.08667191 4 8 C3.67 8.66 3.34 9.32 3 10 C4.32 10.33 5.64 10.66 7 11 C6.34 11.66 5.68 12.32 5 13 C3.35 12.67 1.7 12.34 0 12 C0 8.04 0 4.08 0 0 Z " fill="#E037AA" transform="translate(8,10)"/>
<path d="M0 0 C0.33 0.66 0.66 1.32 1 2 C1.66 2 2.32 2 3 2 C3.33 1.34 3.66 0.68 4 0 C4 0.99 4 1.98 4 3 C2.01046676 4.98953324 0.59565478 5.97746933 -2 7 C-2.99 6.67 -3.98 6.34 -5 6 C-4.01 5.34 -3.02 4.68 -2 4 C-2.99 3.67 -3.98 3.34 -5 3 C-4.67 2.34 -4.34 1.68 -4 1 C-2.02 1.495 -2.02 1.495 0 2 C0 1.34 0 0.68 0 0 Z " fill="#D51AB3" transform="translate(16,17)"/>
<path d="M0 0 C3.96 0 7.92 0 12 0 C10.02 0.99 10.02 0.99 8 2 C7.01 2.66 6.02 3.32 5 4 C5 3.01 5 2.02 5 1 C3.02 1.33 1.04 1.66 -1 2 C-0.67 1.34 -0.34 0.68 0 0 Z " fill="#F244A3" transform="translate(10,8)"/>
<path d="M0 0 C0 2.31 0 4.62 0 7 C-0.99 6.01 -1.98 5.02 -3 4 C-3.33 4.66 -3.66 5.32 -4 6 C-4 4.68 -4 3.36 -4 2 C-1 0 -1 0 0 0 Z " fill="#D61FB0" transform="translate(22,10)"/>
</svg>
